<svg xmlns="http://www.w3.org/2000/svg" version="1.1" xmlns:xlink="http://www.w3.org/1999/xlink" xmlns:svgjs="http://svgjs.com/svgjs" width="1400" height="940" preserveAspectRatio="none" viewBox="0 0 1400 940"><g mask="url(&quot;#SvgjsMask1602&quot;)" fill="none"><rect width="1400" height="940" x="0" y="0" fill="#0e2a47"></rect><path d="M225.21 0C232.37 0.33 229.2 10.85 235 10.85C243.88 10.85 243.52 0.51 254.58 0C361.02 -4.91 362.29 0 470 0C587.5 0 587.5 0 705 0C822.5 0 822.5 0 940 0C1035.89 0 1050.87 -25.89 1131.78 0C1168.37 11.71 1152.59 75.2 1175 75.2C1197.99 75.2 1184.76 12.11 1222.59 0C1302.26 -25.49 1368.43 -52.13 1410 0C1462.13 65.37 1410 117.5 1410 235C1410 352.5 1410 352.5 1410 470C1410 587.5 1410 587.5 1410 705C1410 818.77 1455.09 932.54 1410 932.54C1348.11 932.54 1298.9 821.74 1196.04 705C1181.4 688.38 1187 665.83 1175 665.83C1161.79 665.83 1163.26 688.09 1145.63 705C1045.76 800.79 1041.7 796.95 940 891.23C914.95 914.45 923.56 933.48 892.13 940C806.06 957.86 798.57 940 705 940C630.7 940 622.73 961.26 556.4 940C505.23 923.6 514.82 864.68 470 864.68C420.08 864.68 424.71 921.48 366.93 940C307.21 959.14 300.97 940 235 940C117.5 940 58.75 998.75 0 940C-58.75 881.25 0 822.5 0 705C0 587.5 0 587.5 0 470C0 352.5 0 352.5 0 235C0 117.5 -57.5 60 0 0C55.1 -57.5 114.87 -5.09 225.21 0" stroke="rgba(51, 121, 194, 0.58)" stroke-width="2"></path><path d="M470 410C450.21 410 432.4 441.45 432.4 470C432.4 493.14 450.43 513.38 470 513.38C490.92 513.38 513.38 493.42 513.38 470C513.38 441.73 490.7 410 470 410" stroke="rgba(51, 121, 194, 0.58)" stroke-width="2"></path><path d="M37.39 235C37.39 218.59 3.66 225.76 0 202.75C-15.03 108.26 -42.03 59.34 0 0C29.77 -42.03 83.34 -25.96 143.61 0C200.84 24.65 180.86 101.23 235 101.23C317.94 101.23 323.77 40.49 417.78 0C441.27 -10.12 443.89 0 470 0C587.5 0 587.5 0 705 0C822.5 0 822.5 0 940 0C1002.13 0 1064.25 -30.85 1064.25 0C1064.25 51.04 1007.09 86.47 940 163.79C905.13 203.97 877.2 187.39 860.34 235C822.97 340.5 808.65 362.94 831.54 470C848.48 549.22 884.65 539.7 940 607.56C980.49 657.2 1023.23 658.95 1023.23 705C1023.23 745.36 980.09 741.11 940 780.38C860.14 858.61 870.35 880.89 783.33 940C752.85 960.7 744.16 940 705 940C673.89 940 667.87 956.08 642.79 940C550.37 880.76 559.97 860 470 789.36C410.31 742.5 404.32 750.4 343.46 705C286.82 662.74 297.08 615.04 235 614.03C125.35 612.24 61.28 736.96 0 699.4C-56.22 664.94 0 584.7 0 470C0 369.63 -14.92 363.07 0 269.27C3.77 245.57 37.39 251.85 37.39 235" stroke="rgba(51, 121, 194, 0.58)" stroke-width="2"></path><path d="M1102.07 235C1107.38 198.64 1148.7 224.41 1175 192.7C1246.14 106.91 1218.4 64.42 1296.96 0C1335.9 -31.93 1391.64 -38.16 1410 0C1448.16 79.34 1410 117.5 1410 235C1410 349.94 1426.71 364.62 1410 464.89C1407.13 482.12 1370.83 467.14 1370.83 470C1370.83 472.87 1407.1 458.97 1410 476.35C1426.69 576.47 1410 590.67 1410 705C1410 772.14 1436.61 839.29 1410 839.29C1373.47 839.29 1336.04 779.94 1283.73 705C1218.54 611.61 1235.84 598.44 1175 502.64C1161.22 480.94 1141.04 494.07 1134.48 470C1104.57 360.25 1087.12 337.29 1102.07 235" stroke="rgba(51, 121, 194, 0.58)" stroke-width="2"></path><path d="M470 285C408.97 285 354.07 381.98 354.07 470C354.07 541.37 409.65 603.77 470 603.77C534.5 603.77 603.77 542.23 603.77 470C603.77 382.84 533.82 285 470 285" stroke="rgba(51, 121, 194, 0.58)" stroke-width="2"></path><path d="M174.07 940C174.07 924.88 209.31 886.94 235 886.94C254.21 886.94 263.86 922.05 263.86 940C263.86 948.58 249.43 940 235 940C204.53 940 174.07 951.41 174.07 940" stroke="rgba(51, 121, 194, 0.58)" stroke-width="2"></path><path d="M170.91 235C200.32 209.97 200.76 191.62 235 191.62C285.03 191.62 332.98 190.85 339.44 235C353.35 330.04 317.09 357.42 275.73 470C264.87 499.56 264.15 509.81 235 519.27C126.28 554.57 85.43 577.43 0 559.52C-32.07 552.8 0 514.76 0 470C0 430.84 -21.58 421.34 0 391.67C63.88 303.84 82.82 309.99 170.91 235" stroke="rgba(51, 121, 194, 0.58)" stroke-width="2"></path><path d="M62.01 0C62.01 27.74 17.07 87.55 0 87.55C-13.93 87.55 -18.15 25.63 0 0C12.86 -18.15 62.01 -16.03 62.01 0" stroke="rgba(51, 121, 194, 0.58)" stroke-width="2"></path><path d="M591.55 235C563.06 122.48 538.56 75.74 575.13 0C595.29 -41.76 640.07 0 705 0C822.5 0 822.5 0 940 0C968.36 0 996.72 -14.08 996.72 0C996.72 23.3 973.12 41.78 940 74.77C855.14 159.28 816.31 135.85 760.76 235C705.59 333.47 741.7 352.98 718.56 470C713.82 493.98 711.15 517 705 517C698.94 517 703.13 492.32 694.15 470C646.41 351.32 622.57 357.48 591.55 235" stroke="rgba(51, 121, 194, 0.58)" stroke-width="2"></path><path d="M1279.44 235C1267.77 133.26 1314.72 101.89 1371.33 0C1380 -15.61 1407.27 -16.6 1410 0C1426.6 100.9 1410 117.5 1410 235C1410 286.09 1434.89 337.17 1410 337.17C1369.61 337.17 1287.11 301.85 1279.44 235" stroke="rgba(51, 121, 194, 0.58)" stroke-width="2"></path><path d="M456.44 705C456.44 699.87 461.98 694.15 470 694.15C492.26 694.15 517 700.01 517 705C517 709.95 492.59 714.04 470 714.04C462.31 714.04 456.44 709.81 456.44 705" stroke="rgba(51, 121, 194, 0.58)" stroke-width="2"></path><path d="M1371.42 705C1371.42 672.49 1399.71 635.14 1410 635.14C1419 635.14 1410 670.07 1410 705C1410 725.51 1418.13 746.03 1410 746.03C1398.84 746.03 1371.42 727.94 1371.42 705" stroke="rgba(51, 121, 194, 0.58)" stroke-width="2"></path></g><defs><mask id="SvgjsMask1602"><rect width="1400" height="940" fill="#ffffff"></rect></mask></defs></svg>